<?xml version="1.0" encoding="utf-8"?>
<!-- Generator: Adobe Illustrator 27.3.1, SVG Export Plug-In . SVG Version: 6.00 Build 0)  -->
<svg version="1.1" id="Layer_1" xmlns="http://www.w3.org/2000/svg" xmlns:xlink="http://www.w3.org/1999/xlink" x="0px" y="0px"
	 viewBox="0 0 500 500" style="enable-background:new 0 0 500 500;" xml:space="preserve">
<style type="text/css">
	.st0{fill:#FFFFFF;}
	.st1{fill:url(#SVGID_1_);}
	.st2{fill:url(#SVGID_00000178919563114070736850000010400110167762912658_);}
	.st3{fill:url(#SVGID_00000062188766723460142960000002253805118672886400_);}
	.st4{fill:url(#SVGID_00000152965298845436279750000012739694898935952554_);}
	.st5{fill:url(#SVGID_00000104666479379846636400000015213922848111181461_);}
	.st6{fill:url(#SVGID_00000037688608098710464250000015813959771921859214_);}
	.st7{fill:url(#SVGID_00000034790948419729032910000018368236391762193343_);}
	.st8{fill:url(#SVGID_00000049944649316245540860000011320995054697442750_);}
	.st9{fill:url(#SVGID_00000101091136534526932120000007290517516893511329_);}
	.st10{fill:url(#SVGID_00000165194807809695215280000003815087250925300359_);}
	.st11{fill:url(#SVGID_00000127040377253024498450000010198717242059160470_);}
	.st12{fill:url(#SVGID_00000141418960470539589940000010675358295641096089_);}
	.st13{fill:url(#SVGID_00000069368992070447933430000002377920566187641510_);}
	.st14{fill:url(#SVGID_00000103954850136310515170000014504070339378681221_);}
	.st15{fill:url(#SVGID_00000057145257025973188810000014980683056638323591_);}
	.st16{fill:url(#SVGID_00000168095210447334615860000009778474231721467029_);}
	.st17{fill:url(#SVGID_00000130645283934116258830000011586623804195981242_);}
	.st18{fill:url(#SVGID_00000133525937612143184860000018296613801798345630_);}
	.st19{fill:url(#SVGID_00000107572484673110192240000007387348271747112842_);}
	.st20{fill:url(#SVGID_00000068636550158459736810000009917549533163372937_);}
	.st21{fill:url(#SVGID_00000114765052548505664280000015864117389916102546_);}
	.st22{fill:url(#SVGID_00000093863673072542899160000015242434194407918255_);}
	.st23{fill:#FF66DC;}
	.st24{font-family:'ProductSans-Regular';}
	.st25{font-size:36.5729px;}
</style>
<g id="BACKGROUND">
	<rect class="st0" width="500" height="500"/>
</g>
<g id="OBJECTS">
	<g>
		<g>
			
				<linearGradient id="SVGID_1_" gradientUnits="userSpaceOnUse" x1="200.1185" y1="154.3148" x2="200.1185" y2="453.3829" gradientTransform="matrix(1 0 0 -1 0 502)">
				<stop  offset="0" style="stop-color:#3AC9E7"/>
				<stop  offset="1" style="stop-color:#FF66DC"/>
			</linearGradient>
			<path class="st1" d="M250,281.5h-73.4c-0.7,0-1.5-0.2-2-0.7c-8.7-6.6-13.7-16.5-13.7-27.4c0-1.5,0.1-3.1,0.3-4.6
				c-9-6.4-14.4-16.7-14.4-27.9c0-12.1,6.3-23.1,16.5-29.3c-0.3-1.9-0.5-3.9-0.5-5.8c0-18.2,14.2-33.1,32-34.2
				c4-14.9,17.5-25.4,33.1-25.4c9.2,0,17.9,3.6,24.4,10.2c1.3,1.3,1.3,3.5,0,4.8c-1.3,1.3-3.5,1.3-4.8,0c-5.2-5.3-12.1-8.2-19.5-8.2
				c-13.3,0-24.7,9.5-27,22.6c-0.3,1.7-1.8,2.9-3.5,2.8c-0.1,0-0.2,0-0.3,0c-15.2,0-27.5,12.3-27.5,27.5c0,2.3,0.3,4.6,0.8,6.8
				c0.4,1.5-0.3,3.2-1.8,3.9c-9.3,4.7-15.1,14.1-15.1,24.5c0,9.6,4.9,18.4,13.1,23.4c1.2,0.7,1.8,2.2,1.5,3.6
				c-0.4,1.8-0.6,3.7-0.6,5.5c0,8.3,3.7,16,10.1,21.3H250c1.9,0,3.4,1.5,3.4,3.4C253.4,280,251.9,281.5,250,281.5z"/>
		</g>
		<g>
			
				<linearGradient id="SVGID_00000044174768621919351630000003760235277584461723_" gradientUnits="userSpaceOnUse" x1="220.6554" y1="154.3148" x2="220.6554" y2="453.384" gradientTransform="matrix(1 0 0 -1 0 502)">
				<stop  offset="0" style="stop-color:#3AC9E7"/>
				<stop  offset="1" style="stop-color:#FF66DC"/>
			</linearGradient>
			<path style="fill:url(#SVGID_00000044174768621919351630000003760235277584461723_);" d="M250,305.4h-32.8
				c-20.8,0-28.2-16.1-29.3-24.7c-0.2-1.9,1.1-3.6,3-3.8c1.9-0.2,3.6,1.1,3.8,3l0,0c0.1,0.8,2.7,18.7,22.5,18.7H250
				c1.9,0,3.4,1.5,3.4,3.4S251.9,305.4,250,305.4z"/>
		</g>
		<g>
			
				<linearGradient id="SVGID_00000006689049404093324030000015967315558689720710_" gradientUnits="userSpaceOnUse" x1="241.8611" y1="154.315" x2="241.8611" y2="453.3826" gradientTransform="matrix(1 0 0 -1 0 502)">
				<stop  offset="0" style="stop-color:#3AC9E7"/>
				<stop  offset="1" style="stop-color:#FF66DC"/>
			</linearGradient>
			<path style="fill:url(#SVGID_00000006689049404093324030000015967315558689720710_);" d="M251.9,335.5H246c-1.3,0-2.5-0.8-3.1-2
				l-14.2-30.1c-0.8-1.7-0.1-3.7,1.6-4.5c1.7-0.8,3.7-0.1,4.5,1.6l13.2,28.1h3.7c1.9,0,3.4,1.5,3.4,3.4
				C255.3,334,253.7,335.5,251.9,335.5z"/>
		</g>
		<g>
			
				<linearGradient id="SVGID_00000120560308482205143740000010736421123363179153_" gradientUnits="userSpaceOnUse" x1="169.1715" y1="154.3152" x2="169.1715" y2="453.3824" gradientTransform="matrix(1 0 0 -1 0 502)">
				<stop  offset="0" style="stop-color:#3AC9E7"/>
				<stop  offset="1" style="stop-color:#FF66DC"/>
			</linearGradient>
			<path style="fill:url(#SVGID_00000120560308482205143740000010736421123363179153_);" d="M164.9,250.6c-1.3,0-2.6-0.8-3.1-2.1
				c-0.7-1.7,0.1-3.7,1.8-4.5l8.5-3.6c1.7-0.7,3.7,0.1,4.5,1.8c0.7,1.7-0.1,3.7-1.8,4.5l-8.5,3.6
				C165.8,250.5,165.4,250.6,164.9,250.6z"/>
		</g>
		<g>
			
				<linearGradient id="SVGID_00000031172292461531023590000000810038980349173437_" gradientUnits="userSpaceOnUse" x1="200.5975" y1="154.3152" x2="200.5975" y2="453.3819" gradientTransform="matrix(1 0 0 -1 0 502)">
				<stop  offset="0" style="stop-color:#3AC9E7"/>
				<stop  offset="1" style="stop-color:#FF66DC"/>
			</linearGradient>
			<path style="fill:url(#SVGID_00000031172292461531023590000000810038980349173437_);" d="M204.1,165.6c-0.9,0-1.8-0.4-2.5-1.1
				l-6.9-7.3c-1.3-1.4-1.2-3.5,0.1-4.8c1.4-1.3,3.5-1.2,4.8,0.1l6.9,7.3c1.3,1.4,1.2,3.5-0.1,4.8
				C205.7,165.3,204.9,165.6,204.1,165.6z"/>
		</g>
		<g>
			
				<linearGradient id="SVGID_00000160879642482320513770000004706195341503622027_" gradientUnits="userSpaceOnUse" x1="179.3542" y1="154.3148" x2="179.3542" y2="453.3833" gradientTransform="matrix(1 0 0 -1 0 502)">
				<stop  offset="0" style="stop-color:#3AC9E7"/>
				<stop  offset="1" style="stop-color:#FF66DC"/>
			</linearGradient>
			<path style="fill:url(#SVGID_00000160879642482320513770000004706195341503622027_);" d="M185.6,256.7c-0.4,0-0.9-0.1-1.3-0.3
				c-5.8-2.4-10.3-7-12.7-12.8c-2.4-5.8-2.4-12.2,0-18c0.7-1.7,2.7-2.6,4.5-1.8c1.7,0.7,2.6,2.7,1.8,4.5c-1.7,4.1-1.7,8.7,0,12.8
				c1.7,4.1,4.9,7.4,9,9.1c1.7,0.7,2.6,2.7,1.8,4.5C188.2,255.9,186.9,256.7,185.6,256.7z"/>
		</g>
		<g>
			
				<linearGradient id="SVGID_00000150796399720568743800000001770898358671282106_" gradientUnits="userSpaceOnUse" x1="208.96" y1="154.3148" x2="208.96" y2="453.3824" gradientTransform="matrix(1 0 0 -1 0 502)">
				<stop  offset="0" style="stop-color:#3AC9E7"/>
				<stop  offset="1" style="stop-color:#FF66DC"/>
			</linearGradient>
			<path style="fill:url(#SVGID_00000150796399720568743800000001770898358671282106_);" d="M197.8,179.9c-0.1,0-0.3,0-0.4,0
				c-1.9-0.2-3.2-1.9-3-3.8c0.7-6.2,3.9-11.8,8.8-15.7c4.9-3.9,11.1-5.6,17.3-4.9c1.9,0.2,3.2,1.9,3,3.8s-1.9,3.2-3.8,3
				c-4.4-0.5-8.8,0.7-12.3,3.5s-5.7,6.7-6.2,11.2C201,178.7,199.5,179.9,197.8,179.9z"/>
		</g>
		<g>
			
				<linearGradient id="SVGID_00000050620671073146868590000016195890097847043213_" gradientUnits="userSpaceOnUse" x1="250.0007" y1="154.3151" x2="250.0007" y2="453.3834" gradientTransform="matrix(1 0 0 -1 0 502)">
				<stop  offset="0" style="stop-color:#3AC9E7"/>
				<stop  offset="1" style="stop-color:#FF66DC"/>
			</linearGradient>
			<path style="fill:url(#SVGID_00000050620671073146868590000016195890097847043213_);" d="M250,255.5c-21.1,0-39.3-15.7-42.4-36.5
				c-0.3-1.9,1-3.6,2.9-3.9c1.9-0.3,3.6,1,3.9,2.9c2.6,17.5,17.9,30.7,35.6,30.7c17.7,0,33.1-13.2,35.6-30.7c0.3-1.9,2-3.2,3.9-2.9
				c1.9,0.3,3.1,2,2.9,3.9C289.3,239.7,271.1,255.5,250,255.5z"/>
		</g>
		<g>
			
				<linearGradient id="SVGID_00000150093374613271411640000015130782308556121747_" gradientUnits="userSpaceOnUse" x1="212.2875" y1="154.315" x2="212.2875" y2="453.3833" gradientTransform="matrix(1 0 0 -1 0 502)">
				<stop  offset="0" style="stop-color:#3AC9E7"/>
				<stop  offset="1" style="stop-color:#FF66DC"/>
			</linearGradient>
			<path style="fill:url(#SVGID_00000150093374613271411640000015130782308556121747_);" d="M198.8,229.1c-0.5,0-1-0.1-1.5-0.4
				c-1.7-0.8-2.4-2.9-1.5-4.6c5.8-11.6,20-16.3,31.6-10.5c1.7,0.8,2.4,2.9,1.5,4.6c-0.8,1.7-2.9,2.4-4.6,1.5
				c-8.3-4.1-18.3-0.8-22.5,7.5C201.2,228.4,200,229.1,198.8,229.1z"/>
		</g>
		<g>
			
				<linearGradient id="SVGID_00000110465294000740672680000012328604155573654431_" gradientUnits="userSpaceOnUse" x1="299.882" y1="154.3148" x2="299.882" y2="453.3829" gradientTransform="matrix(1 0 0 -1 0 502)">
				<stop  offset="0" style="stop-color:#3AC9E7"/>
				<stop  offset="1" style="stop-color:#FF66DC"/>
			</linearGradient>
			<path style="fill:url(#SVGID_00000110465294000740672680000012328604155573654431_);" d="M323.4,281.5H250
				c-1.9,0-3.4-1.5-3.4-3.4s1.5-3.4,3.4-3.4h72.2c6.4-5.2,10.1-12.9,10.1-21.3c0-1.8-0.2-3.7-0.6-5.5c-0.3-1.4,0.3-2.8,1.5-3.6
				c8.2-5.1,13.1-13.8,13.1-23.4c0-10.4-5.8-19.8-15.1-24.5c-1.4-0.7-2.2-2.3-1.8-3.9c0.6-2.2,0.8-4.5,0.8-6.8
				c0-15.2-12.3-27.5-27.5-27.5c-0.1,0-0.2,0-0.3,0c-1.7,0.1-3.2-1.1-3.5-2.8c-2.4-13.1-13.7-22.6-27-22.6c-7.4,0-14.3,2.9-19.5,8.2
				c-1.3,1.3-3.5,1.4-4.8,0c-1.3-1.3-1.4-3.5,0-4.8c6.5-6.6,15.2-10.2,24.4-10.2c15.7,0,29.2,10.5,33.1,25.4
				c17.9,1.2,32,16.1,32,34.2c0,2-0.2,3.9-0.5,5.8c10.2,6.2,16.5,17.2,16.5,29.3c0,11.2-5.3,21.5-14.4,27.9c0.2,1.5,0.3,3.1,0.3,4.6
				c0,10.9-5,20.9-13.7,27.4C324.8,281.3,324.1,281.5,323.4,281.5z"/>
		</g>
		<g>
			
				<linearGradient id="SVGID_00000096036514354748409610000008429809547369524904_" gradientUnits="userSpaceOnUse" x1="250.0005" y1="223.897" x2="250.0005" y2="223.897" gradientTransform="matrix(1 0 0 -1 0 502)">
				<stop  offset="0" style="stop-color:#3AC9E7"/>
				<stop  offset="1" style="stop-color:#FF66DC"/>
			</linearGradient>
			<path style="fill:url(#SVGID_00000096036514354748409610000008429809547369524904_);" d="M250,278.1"/>
		</g>
		<g>
			
				<linearGradient id="SVGID_00000007409764330378691730000008253426103773869719_" gradientUnits="userSpaceOnUse" x1="250.0005" y1="363.37" x2="250.0005" y2="363.37" gradientTransform="matrix(1 0 0 -1 0 502)">
				<stop  offset="0" style="stop-color:#3AC9E7"/>
				<stop  offset="1" style="stop-color:#FF66DC"/>
			</linearGradient>
			<path style="fill:url(#SVGID_00000007409764330378691730000008253426103773869719_);" d="M250,138.6"/>
		</g>
		<g>
			
				<linearGradient id="SVGID_00000078027240558940607600000007499195681369951901_" gradientUnits="userSpaceOnUse" x1="279.346" y1="154.3148" x2="279.346" y2="453.3837" gradientTransform="matrix(1 0 0 -1 0 502)">
				<stop  offset="0" style="stop-color:#3AC9E7"/>
				<stop  offset="1" style="stop-color:#FF66DC"/>
			</linearGradient>
			<path style="fill:url(#SVGID_00000078027240558940607600000007499195681369951901_);" d="M282.8,305.4H250
				c-1.9,0-3.4-1.5-3.4-3.4s1.5-3.4,3.4-3.4h32.8c19.8,0,22.4-17.9,22.5-18.7c0.2-1.9,1.9-3.2,3.8-2.9c1.9,0.2,3.2,1.9,3,3.8
				C311,289.3,303.5,305.4,282.8,305.4z"/>
		</g>
		<g>
			
				<linearGradient id="SVGID_00000070113227907268568050000000256686947003383700_" gradientUnits="userSpaceOnUse" x1="258.1384" y1="154.315" x2="258.1384" y2="453.3829" gradientTransform="matrix(1 0 0 -1 0 502)">
				<stop  offset="0" style="stop-color:#3AC9E7"/>
				<stop  offset="1" style="stop-color:#FF66DC"/>
			</linearGradient>
			<path style="fill:url(#SVGID_00000070113227907268568050000000256686947003383700_);" d="M254,335.5h-5.8c-1.9,0-3.4-1.5-3.4-3.4
				s1.5-3.4,3.4-3.4h3.7l13.2-28.1c0.8-1.7,2.8-2.4,4.5-1.6c1.7,0.8,2.4,2.8,1.6,4.5l-14.2,30.1C256.5,334.7,255.3,335.5,254,335.5z
				"/>
		</g>
		<g>
			
				<linearGradient id="SVGID_00000049195138249679612220000004927201733143030449_" gradientUnits="userSpaceOnUse" x1="330.8285" y1="154.315" x2="330.8285" y2="453.3823" gradientTransform="matrix(1 0 0 -1 0 502)">
				<stop  offset="0" style="stop-color:#3AC9E7"/>
				<stop  offset="1" style="stop-color:#FF66DC"/>
			</linearGradient>
			<path style="fill:url(#SVGID_00000049195138249679612220000004927201733143030449_);" d="M335.1,250.6c-0.4,0-0.9-0.1-1.3-0.3
				l-8.5-3.6c-1.7-0.7-2.5-2.7-1.8-4.5c0.7-1.7,2.7-2.5,4.5-1.8l8.5,3.6c1.7,0.7,2.5,2.7,1.8,4.5
				C337.7,249.8,336.4,250.6,335.1,250.6z"/>
		</g>
		<g>
			
				<linearGradient id="SVGID_00000085227672490561982420000000969339103427062951_" gradientUnits="userSpaceOnUse" x1="299.4028" y1="154.3157" x2="299.4028" y2="453.3822" gradientTransform="matrix(1 0 0 -1 0 502)">
				<stop  offset="0" style="stop-color:#3AC9E7"/>
				<stop  offset="1" style="stop-color:#FF66DC"/>
			</linearGradient>
			<path style="fill:url(#SVGID_00000085227672490561982420000000969339103427062951_);" d="M295.9,165.6c-0.8,0-1.7-0.3-2.3-0.9
				c-1.4-1.3-1.4-3.4-0.1-4.8l6.9-7.3c1.3-1.4,3.4-1.4,4.8-0.1c1.4,1.3,1.4,3.4,0.1,4.8l-6.9,7.3
				C297.8,165.2,296.9,165.6,295.9,165.6z"/>
		</g>
		<g>
			
				<linearGradient id="SVGID_00000178895824908101238360000009824435530523571364_" gradientUnits="userSpaceOnUse" x1="320.6455" y1="154.3148" x2="320.6455" y2="453.3829" gradientTransform="matrix(1 0 0 -1 0 502)">
				<stop  offset="0" style="stop-color:#3AC9E7"/>
				<stop  offset="1" style="stop-color:#FF66DC"/>
			</linearGradient>
			<path style="fill:url(#SVGID_00000178895824908101238360000009824435530523571364_);" d="M314.4,256.7c-1.3,0-2.6-0.8-3.1-2.1
				c-0.7-1.7,0.1-3.7,1.8-4.5c4.1-1.7,7.3-4.9,9-9.1c1.7-4.1,1.7-8.7,0-12.8c-0.7-1.7,0.1-3.7,1.8-4.5c1.7-0.7,3.7,0.1,4.5,1.8
				c2.4,5.8,2.4,12.2,0,18c-2.4,5.8-6.9,10.4-12.7,12.8C315.3,256.6,314.9,256.7,314.4,256.7z"/>
		</g>
		<g>
			
				<linearGradient id="SVGID_00000053542955199214621980000016575875549372082829_" gradientUnits="userSpaceOnUse" x1="291.042" y1="154.3148" x2="291.042" y2="453.3833" gradientTransform="matrix(1 0 0 -1 0 502)">
				<stop  offset="0" style="stop-color:#3AC9E7"/>
				<stop  offset="1" style="stop-color:#FF66DC"/>
			</linearGradient>
			<path style="fill:url(#SVGID_00000053542955199214621980000016575875549372082829_);" d="M302.2,179.9c-1.7,0-3.2-1.3-3.4-3
				c-1.1-9.2-9.4-15.8-18.6-14.7c-1.9,0.2-3.6-1.1-3.8-3c-0.2-1.9,1.1-3.6,3-3.8c12.9-1.5,24.6,7.8,26.1,20.6c0.2,1.9-1.1,3.6-3,3.8
				C302.5,179.9,302.3,179.9,302.2,179.9z"/>
		</g>
		<g>
			
				<linearGradient id="SVGID_00000053542318577685498600000008585296870094351022_" gradientUnits="userSpaceOnUse" x1="287.7125" y1="154.3151" x2="287.7125" y2="453.3826" gradientTransform="matrix(1 0 0 -1 0 502)">
				<stop  offset="0" style="stop-color:#3AC9E7"/>
				<stop  offset="1" style="stop-color:#FF66DC"/>
			</linearGradient>
			<path style="fill:url(#SVGID_00000053542318577685498600000008585296870094351022_);" d="M301.2,229.1c-1.2,0-2.5-0.7-3.1-1.9
				c-2-4-5.4-7-9.7-8.4c-4.2-1.4-8.8-1.1-12.8,0.9c-1.7,0.8-3.7,0.2-4.6-1.5c-0.8-1.7-0.2-3.7,1.5-4.6c5.6-2.8,12-3.3,18-1.3
				c6,2,10.8,6.2,13.6,11.8c0.8,1.7,0.2,3.7-1.5,4.6C302.3,229,301.7,229.1,301.2,229.1z"/>
		</g>
		<g>
			
				<linearGradient id="SVGID_00000183221614348451451060000012097863282027944084_" gradientUnits="userSpaceOnUse" x1="250.0005" y1="154.3152" x2="250.0005" y2="453.383" gradientTransform="matrix(1 0 0 -1 0 502)">
				<stop  offset="0" style="stop-color:#3AC9E7"/>
				<stop  offset="1" style="stop-color:#FF66DC"/>
			</linearGradient>
			<path style="fill:url(#SVGID_00000183221614348451451060000012097863282027944084_);" d="M250,174.1c-1.9,0-3.4-1.5-3.4-3.4v-32
				c0-1.9,1.5-3.4,3.4-3.4c1.9,0,3.4,1.5,3.4,3.4v32C253.4,172.5,251.9,174.1,250,174.1z"/>
		</g>
		<g>
			
				<linearGradient id="SVGID_00000108310979042341012380000001884460789360767675_" gradientUnits="userSpaceOnUse" x1="250.0005" y1="154.315" x2="250.0005" y2="453.3827" gradientTransform="matrix(1 0 0 -1 0 502)">
				<stop  offset="0" style="stop-color:#3AC9E7"/>
				<stop  offset="1" style="stop-color:#FF66DC"/>
			</linearGradient>
			<path style="fill:url(#SVGID_00000108310979042341012380000001884460789360767675_);" d="M250,281.5c-1.9,0-3.4-1.5-3.4-3.4
				v-12.9c0-1.9,1.5-3.4,3.4-3.4c1.9,0,3.4,1.5,3.4,3.4v12.9C253.4,280,251.9,281.5,250,281.5z"/>
		</g>
		<g>
			
				<linearGradient id="SVGID_00000000916160951750025380000005153998282310182037_" gradientUnits="userSpaceOnUse" x1="250.001" y1="154.3151" x2="250.001" y2="453.3829" gradientTransform="matrix(1 0 0 -1 0 502)">
				<stop  offset="0" style="stop-color:#3AC9E7"/>
				<stop  offset="1" style="stop-color:#FF66DC"/>
			</linearGradient>
			<path style="fill:url(#SVGID_00000000916160951750025380000005153998282310182037_);" d="M250,128.9c-0.5,0-1-0.1-1.5-0.4
				c-25.3-12.6-31.4-31.1-32.8-38.4c0,0,0,0,0,0c0,0,0,0,0,0l0,0c-0.5-2.8-0.5-4.5-0.5-4.7c0-11.2,9.1-20.4,20.4-20.4
				c5.5,0,10.7,2.2,14.5,6c3.8-3.8,8.9-6,14.5-6c11.2,0,20.4,9.1,20.4,20.4c0,0.2,0,1.9-0.5,4.7l0,0c0,0,0,0,0,0c0,0,0,0,0,0
				c-1.4,7.4-7.5,25.9-32.8,38.4C251,128.7,250.5,128.9,250,128.9z M222.4,88.8c1.2,6.2,6.3,21.7,27.6,32.9
				c21.3-11.2,26.4-26.6,27.6-32.8c0,0,0,0,0,0c0.4-2,0.4-3.3,0.4-3.4c0-7.5-6.1-13.6-13.6-13.6c-4.8,0-9.1,2.4-11.6,6.5
				c-0.6,1-1.7,1.6-2.9,1.6s-2.3-0.6-2.9-1.6c-2.5-4.1-6.8-6.5-11.6-6.5c-7.5,0-13.6,6.1-13.6,13.6l0,0
				C222,85.3,222,86.6,222.4,88.8C222.4,88.7,222.4,88.8,222.4,88.8z M281.5,85.3L281.5,85.3L281.5,85.3z"/>
		</g>
	</g>
	<text transform="matrix(1 0 0 1 135.0929 394.0002)" class="st23 st24 st25">ManaSatarang</text>
</g>
</svg>
